<?xml version="1.0" encoding="utf-8"?>
<!-- Generator: Adobe Illustrator 16.0.0, SVG Export Plug-In . SVG Version: 6.00 Build 0)  -->
<!DOCTYPE svg PUBLIC "-//W3C//DTD SVG 1.1//EN" "http://www.w3.org/Graphics/SVG/1.1/DTD/svg11.dtd">
<svg version="1.1" id="Layer_1" xmlns="http://www.w3.org/2000/svg" xmlns:xlink="http://www.w3.org/1999/xlink" x="0px" y="0px"
	 width="216px" height="64px" viewBox="-81 -24 216 64" enable-background="new -81 -24 216 64" xml:space="preserve">
<g>
	<path fill="#FFFFFF" d="M133.495,32.434c0,3.387-2.743,6.129-6.136,6.129H-73.432c-3.392,0-6.144-2.742-6.144-6.129v-48.873
		c0-3.384,2.752-6.137,6.144-6.137h200.79c3.394,0,6.135,2.752,6.135,6.137L133.495,32.434L133.495,32.434z"/>
	<path fill="#A6A6A6" d="M127.359,39.989H-73.432c-4.172,0-7.568-3.388-7.568-7.556v-48.872c0-4.17,3.396-7.562,7.568-7.562h200.79
		c4.166,0,7.566,3.392,7.566,7.562v48.872C134.929,36.602,131.527,39.989,127.359,39.989L127.359,39.989z"/>
	<path d="M133.495,32.434c0,3.387-2.743,6.129-6.136,6.129H-73.432c-3.392,0-6.144-2.742-6.144-6.129v-48.873
		c0-3.384,2.752-6.137,6.144-6.137h200.79c3.394,0,6.135,2.752,6.135,6.137L133.495,32.434L133.495,32.434z"/>
	<path fill="#FFFFFF" d="M-32.786,7.658c-0.046-5.158,4.224-7.666,4.419-7.783c-2.418-3.526-6.166-4.007-7.483-4.045
		c-3.148-0.331-6.202,1.883-7.805,1.883c-1.635,0-4.105-1.851-6.766-1.797c-3.425,0.053-6.629,2.036-8.386,5.114
		c-3.626,6.278-0.922,15.503,2.552,20.577c1.738,2.485,3.769,5.26,6.427,5.161c2.6-0.104,3.572-1.656,6.709-1.656
		c3.11,0,4.022,1.656,6.733,1.594c2.792-0.042,4.549-2.495,6.226-5.004c2.008-2.845,2.815-5.653,2.847-5.797
		C-27.376,15.882-32.73,13.838-32.786,7.658z"/>
	<path fill="#FFFFFF" d="M-37.906-7.509c1.397-1.749,2.355-4.128,2.089-6.544c-2.024,0.09-4.556,1.4-6.014,3.111
		c-1.291,1.507-2.442,3.978-2.145,6.302C-41.701-4.47-39.366-5.788-37.906-7.509z"/>
	
		<linearGradient id="SVGID_1_" gradientUnits="userSpaceOnUse" x1="77.3682" y1="611.1611" x2="77.3682" y2="553.4833" gradientTransform="matrix(1 0 0 1 0 -571)">
		<stop  offset="0" style="stop-color:#1A1A1A;stop-opacity:0.1"/>
		<stop  offset="0.1235" style="stop-color:#212121;stop-opacity:0.1506"/>
		<stop  offset="0.3085" style="stop-color:#353535;stop-opacity:0.2265"/>
		<stop  offset="0.5321" style="stop-color:#575757;stop-opacity:0.3181"/>
		<stop  offset="0.7834" style="stop-color:#858585;stop-opacity:0.4212"/>
		<stop  offset="1" style="stop-color:#B3B3B3;stop-opacity:0.51"/>
	</linearGradient>
	<path fill="url(#SVGID_1_)" d="M127.359-24H19.81l42.126,63.989h65.424c4.167,0,7.567-3.388,7.567-7.559v-48.869
		C134.929-20.608,131.527-24,127.359-24z"/>
	<g>
		<path fill="#FFFFFF" d="M4.882,26.411H1.247l-1.991-6.255h-6.919l-1.896,6.255h-3.538l6.856-21.295h4.234L4.882,26.411z
			 M-1.344,17.532l-1.801-5.56c-0.19-0.568-0.548-1.906-1.074-4.012h-0.063c-0.211,0.905-0.549,2.243-1.011,4.012l-1.77,5.56H-1.344
			z"/>
		<path fill="#FFFFFF" d="M22.482,18.545c0,2.611-0.709,4.675-2.129,6.191c-1.271,1.348-2.851,2.022-4.734,2.022
			c-2.034,0-3.497-0.726-4.385-2.18v8.058H7.823V16.104c0-1.641-0.043-3.322-0.127-5.048h3l0.191,2.435h0.064
			c1.138-1.834,2.864-2.752,5.181-2.752c1.812,0,3.325,0.716,4.534,2.147C21.876,14.323,22.482,16.207,22.482,18.545z M19.006,18.67
			c0-1.494-0.337-2.727-1.012-3.697c-0.738-1.01-1.729-1.516-2.97-1.516c-0.842,0-1.606,0.281-2.291,0.837
			c-0.684,0.56-1.133,1.291-1.342,2.198c-0.106,0.422-0.159,0.766-0.159,1.038v2.562c0,1.114,0.343,2.057,1.028,2.829
			c0.685,0.767,1.574,1.152,2.669,1.152c1.285,0,2.286-0.496,3-1.484C18.647,21.599,19.006,20.292,19.006,18.67z"/>
		<path fill="#FFFFFF" d="M40.145,18.545c0,2.611-0.709,4.675-2.128,6.191c-1.272,1.348-2.851,2.022-4.735,2.022
			c-2.033,0-3.496-0.726-4.386-2.18v8.058h-3.411V16.104c0-1.641-0.043-3.322-0.126-5.048h3l0.191,2.435h0.064
			c1.136-1.834,2.863-2.752,5.182-2.752c1.81,0,3.322,0.716,4.535,2.147C39.537,14.323,40.145,16.207,40.145,18.545z M36.668,18.67
			c0-1.494-0.338-2.727-1.013-3.697c-0.738-1.01-1.725-1.516-2.968-1.516c-0.842,0-1.606,0.281-2.292,0.837
			c-0.685,0.56-1.132,1.291-1.341,2.198c-0.104,0.422-0.161,0.766-0.161,1.038v2.562c0,1.114,0.344,2.057,1.027,2.829
			c0.685,0.765,1.574,1.152,2.672,1.152c1.287,0,2.287-0.496,3.001-1.484C36.309,21.599,36.668,20.292,36.668,18.67z"/>
		<path fill="#FFFFFF" d="M59.893,20.438c0,1.813-0.633,3.286-1.893,4.425c-1.386,1.242-3.321,1.863-5.801,1.863
			c-2.292,0-4.129-0.442-5.515-1.326l0.789-2.845c1.496,0.887,3.14,1.328,4.929,1.328c1.287,0,2.287-0.29,3.001-0.868
			c0.716-0.579,1.077-1.354,1.077-2.321c0-0.865-0.298-1.59-0.886-2.181c-0.591-0.588-1.568-1.138-2.938-1.641
			c-3.729-1.39-5.595-3.425-5.595-6.1c0-1.747,0.66-3.177,1.974-4.296c1.316-1.117,3.06-1.675,5.231-1.675
			c1.938,0,3.552,0.337,4.834,1.011l-0.856,2.782c-1.207-0.654-2.568-0.98-4.092-0.98c-1.204,0-2.149,0.296-2.824,0.886
			c-0.567,0.526-0.856,1.167-0.856,1.929c0,0.84,0.328,1.537,0.981,2.084c0.568,0.505,1.601,1.053,3.096,1.642
			c1.833,0.739,3.181,1.6,4.043,2.589C59.46,17.733,59.893,18.967,59.893,20.438z"/>
		<path fill="#FFFFFF" d="M71.203,13.616h-3.762v7.455c0,1.896,0.662,2.843,1.99,2.843c0.609,0,1.116-0.052,1.517-0.159l0.094,2.591
			c-0.672,0.252-1.557,0.378-2.652,0.378c-1.349,0-2.4-0.413-3.162-1.234c-0.758-0.822-1.138-2.2-1.138-4.14v-7.74h-2.239v-2.56
			h2.239V8.238l3.351-1.011v3.823h3.762V13.616z"/>
		<path fill="#FFFFFF" d="M88.138,18.607c0,2.359-0.675,4.298-2.023,5.813c-1.41,1.559-3.285,2.338-5.623,2.338
			c-2.258,0-4.051-0.748-5.39-2.241c-1.337-1.496-2.006-3.381-2.006-5.654c0-2.38,0.692-4.329,2.069-5.844
			c1.38-1.516,3.239-2.275,5.577-2.275c2.254,0,4.063,0.75,5.435,2.244C87.485,14.438,88.138,16.31,88.138,18.607z M84.599,18.686
			c0-1.407-0.303-2.613-0.912-3.622c-0.715-1.219-1.74-1.829-3.066-1.829c-1.365,0-2.416,0.609-3.128,1.829
			c-0.613,1.009-0.917,2.237-0.917,3.686c0,1.408,0.304,2.618,0.917,3.624c0.737,1.221,1.766,1.83,3.1,1.83
			c1.305,0,2.325-0.623,3.067-1.859C84.285,21.311,84.599,20.095,84.599,18.686z"/>
		<path fill="#FFFFFF" d="M99.232,14.057c-0.338-0.062-0.699-0.094-1.075-0.094c-1.2,0-2.129,0.451-2.782,1.36
			c-0.567,0.8-0.853,1.811-0.853,3.031v8.057h-3.411v-10.52c0-1.767-0.032-3.381-0.098-4.833h2.971l0.124,2.938h0.096
			c0.361-1.01,0.929-1.824,1.705-2.433c0.762-0.55,1.581-0.824,2.467-0.824c0.315,0,0.601,0.023,0.854,0.062L99.232,14.057
			L99.232,14.057z"/>
		<path fill="#FFFFFF" d="M114.491,18.007c0,0.611-0.04,1.126-0.124,1.547h-10.235c0.037,1.517,0.534,2.679,1.484,3.478
			c0.862,0.715,1.979,1.072,3.348,1.072c1.516,0,2.897-0.239,4.142-0.725l0.534,2.367c-1.453,0.633-3.169,0.948-5.147,0.948
			c-2.383,0-4.252-0.7-5.611-2.098c-1.355-1.4-2.038-3.284-2.038-5.64c0-2.313,0.632-4.241,1.897-5.779
			c1.326-1.643,3.116-2.463,5.37-2.463c2.213,0,3.888,0.82,5.026,2.463C114.038,14.479,114.491,16.091,114.491,18.007z
			 M111.238,17.123c0.023-1.013-0.2-1.885-0.663-2.623c-0.591-0.951-1.499-1.425-2.718-1.425c-1.116,0-2.024,0.462-2.716,1.391
			c-0.568,0.738-0.906,1.625-1.01,2.653L111.238,17.123L111.238,17.123z"/>
	</g>
	<g>
		<g>
			<path fill="#FFFFFF" d="M-8.648-2.412c-0.949,0-1.77-0.047-2.453-0.125v-10.295c0.884-0.139,1.847-0.218,2.888-0.218
				c3.914,0,5.716,1.925,5.716,5.063C-2.497-4.368-4.626-2.412-8.648-2.412z M-8.075-11.73c-0.528,0-0.978,0.032-1.351,0.108v7.827
				c0.202,0.032,0.588,0.047,1.133,0.047c2.563,0,4.022-1.46,4.022-4.193C-4.27-10.378-5.589-11.73-8.075-11.73z"/>
			<path fill="#FFFFFF" d="M3.118-2.334c-2.206,0-3.635-1.647-3.635-3.882c0-2.33,1.46-3.991,3.759-3.991
				c2.173,0,3.634,1.568,3.634,3.868C6.877-3.981,5.372-2.334,3.118-2.334z M3.182-8.982c-1.211,0-1.987,1.133-1.987,2.718
				c0,1.554,0.792,2.687,1.971,2.687c1.18,0,1.972-1.212,1.972-2.72C5.138-7.832,4.361-8.982,3.182-8.982z"/>
			<path fill="#FFFFFF" d="M19.453-10.052l-2.361,7.547h-1.538l-0.978-3.278c-0.248-0.822-0.45-1.63-0.606-2.437h-0.032
				c-0.124,0.823-0.357,1.647-0.606,2.437l-1.04,3.278h-1.554l-2.221-7.547h1.724l0.854,3.588c0.201,0.855,0.371,1.661,0.512,2.422
				h0.032c0.123-0.635,0.324-1.429,0.621-2.407l1.072-3.603h1.367l1.026,3.526c0.249,0.854,0.45,1.693,0.606,2.485h0.045
				c0.109-0.776,0.279-1.601,0.512-2.485l0.917-3.526L19.453-10.052L19.453-10.052z"/>
			<path fill="#FFFFFF" d="M28.143-2.505h-1.678v-4.333c0-1.334-0.512-2.003-1.521-2.003c-0.994,0-1.678,0.854-1.678,1.848v4.489
				h-1.677v-5.39c0-0.667-0.016-1.382-0.062-2.159h1.475l0.079,1.165h0.046c0.451-0.806,1.367-1.318,2.392-1.318
				c1.584,0,2.625,1.211,2.625,3.183L28.143-2.505L28.143-2.505z"/>
			<path fill="#FFFFFF" d="M32.767-2.505h-1.679v-11.01h1.679V-2.505z"/>
			<path fill="#FFFFFF" d="M38.882-2.334c-2.204,0-3.633-1.647-3.633-3.882c0-2.33,1.458-3.991,3.757-3.991
				c2.175,0,3.633,1.568,3.633,3.868C42.641-3.981,41.134-2.334,38.882-2.334z M38.945-8.982c-1.211,0-1.988,1.133-1.988,2.718
				c0,1.554,0.793,2.687,1.971,2.687c1.18,0,1.971-1.212,1.971-2.72C40.9-7.832,40.125-8.982,38.945-8.982z"/>
			<path fill="#FFFFFF" d="M49.251-2.505l-0.122-0.869h-0.043c-0.513,0.699-1.26,1.04-2.207,1.04c-1.354,0-2.313-0.947-2.313-2.222
				c0-1.862,1.616-2.826,4.41-2.826v-0.139c0-0.994-0.525-1.491-1.566-1.491c-0.744,0-1.397,0.187-1.973,0.559l-0.34-1.102
				c0.697-0.435,1.569-0.652,2.591-0.652c1.972,0,2.966,1.04,2.966,3.121v2.78c0,0.762,0.034,1.352,0.109,1.801L49.251-2.505
				L49.251-2.505z M49.022-6.264c-1.863,0-2.797,0.451-2.797,1.522c0,0.792,0.481,1.179,1.15,1.179c0.853,0,1.647-0.651,1.647-1.536
				V-6.264z"/>
			<path fill="#FFFFFF" d="M58.8-2.505l-0.078-1.212h-0.047c-0.481,0.916-1.291,1.383-2.422,1.383c-1.82,0-3.167-1.6-3.167-3.852
				c0-2.36,1.397-4.022,3.305-4.022c1.01,0,1.726,0.34,2.128,1.025h0.033v-4.333h1.678v8.977c0,0.729,0.017,1.413,0.062,2.034H58.8z
				 M58.552-6.945c0-1.057-0.699-1.958-1.768-1.958c-1.244,0-2.004,1.103-2.004,2.654c0,1.522,0.789,2.564,1.971,2.564
				c1.055,0,1.801-0.917,1.801-2.003V-6.945z"/>
			<path fill="#FFFFFF" d="M70.874-2.334c-2.203,0-3.633-1.647-3.633-3.882c0-2.33,1.46-3.991,3.759-3.991
				c2.174,0,3.633,1.568,3.633,3.868C74.635-3.981,73.128-2.334,70.874-2.334z M70.938-8.982c-1.21,0-1.986,1.133-1.986,2.718
				c0,1.554,0.792,2.687,1.97,2.687c1.181,0,1.972-1.212,1.972-2.72C72.896-7.832,72.118-8.982,70.938-8.982z"/>
			<path fill="#FFFFFF" d="M83.652-2.505h-1.679v-4.333c0-1.334-0.513-2.003-1.521-2.003c-0.994,0-1.676,0.854-1.676,1.848v4.489
				h-1.679v-5.39c0-0.667-0.016-1.382-0.062-2.159h1.475l0.079,1.165h0.047c0.45-0.806,1.366-1.319,2.391-1.319
				c1.585,0,2.626,1.211,2.626,3.183V-2.505z"/>
			<path fill="#FFFFFF" d="M94.936-8.794h-1.844v3.665c0,0.933,0.321,1.398,0.975,1.398c0.298,0,0.545-0.032,0.744-0.078
				l0.047,1.273c-0.325,0.125-0.76,0.188-1.3,0.188c-1.322,0-2.113-0.729-2.113-2.641v-3.805h-1.1v-1.258h1.1v-1.382l1.647-0.498
				v1.878h1.844V-8.794z"/>
			<path fill="#FFFFFF" d="M103.815-2.505h-1.675v-4.301c0-1.351-0.512-2.034-1.522-2.034c-0.869,0-1.679,0.589-1.679,1.785v4.55
				h-1.676v-11.01h1.676v4.533h0.033c0.528-0.821,1.293-1.226,2.269-1.226c1.598,0,2.574,1.241,2.574,3.214V-2.505z"/>
			<path fill="#FFFFFF" d="M112.912-5.875h-5.033c0.031,1.429,0.979,2.235,2.379,2.235c0.744,0,1.429-0.125,2.033-0.357l0.261,1.165
				c-0.714,0.311-1.553,0.466-2.531,0.466c-2.36,0-3.758-1.492-3.758-3.804c0-2.313,1.431-4.053,3.568-4.053
				c1.929,0,3.139,1.429,3.139,3.588C112.974-6.34,112.96-6.077,112.912-5.875z M111.373-7.07c0-1.165-0.587-1.988-1.659-1.988
				c-0.963,0-1.726,0.838-1.835,1.988H111.373z"/>
		</g>
	</g>
</g>
</svg>
